<?xml version="1.0" encoding="utf-8"?>
<!-- Svg Vector Icons : http://www.onlinewebfonts.com/icon -->
<!DOCTYPE svg PUBLIC "-//W3C//DTD SVG 1.1//EN" "http://www.w3.org/Graphics/SVG/1.1/DTD/svg11.dtd">
<svg version="1.1" xmlns="http://www.w3.org/2000/svg" xmlns:xlink="http://www.w3.org/1999/xlink" x="0px" y="0px" viewBox="0 0 1000 1000" enable-background="new 0 0 1000 1000" xml:space="preserve">
<metadata> Svg Vector Icons : http://www.onlinewebfonts.com/icon </metadata>
<g><g transform="translate(0.000000,511.000000) scale(0.100000,-0.100000)"><path d="M4650.8,4998.4C3522.2,4922.4,2435,4441,1612.7,3651C829.6,2897.8,348.2,1994.9,157,905.4C81,477,81-271.6,157-702.3C544-2885.9,2262.3-4512,4452.7-4770c336.3-39.2,1089.5-16.1,1407.3,46.1c1752.8,331.7,3148.7,1513.3,3749.8,3169.4c559.7,1538.6,299.4,3275.4-693.3,4611.3c-188.9,253.4-691,757.8-944.4,949C7011.7,4728.9,5853.2,5076.7,4650.8,4998.4z M6272.4,1859c50.7-27.6,122.1-89.8,161.2-138.2l71.4-89.8V115.4v-1515.6l-71.4-89.8c-39.2-48.4-110.6-110.5-161.2-138.2l-89.8-53l-1766.7,6.9l-1764.3,4.6l-99,69.1c-53,39.2-119.8,110.5-145.1,161.2c-48.4,89.8-48.4,124.4-55.3,1508.7c-4.6,1018.1,0,1441.9,18.4,1508.7c39.2,129,119.8,228,234.9,285.6c99,48.4,110.6,48.4,1838.1,48.4h1739L6272.4,1859z M8260.1,1009.1l53-48.4V60.1c0-889.1,0-898.3-50.7-951.3c-27.6-29.9-76-53-110.6-53c-32.3,0-334,101.4-670.3,225.7l-608.1,228V55.5v548.2l598.9,225.7c329.4,124.4,628.8,228,665.7,228C8179.5,1059.7,8227.9,1039,8260.1,1009.1z"/><path d="M3618.9,1121.9c-50.7-53-50.7-59.9-50.7-1020.4v-969.7l53-48.4c30-27.6,78.3-50.7,110.6-50.7c29.9,0,423.8,211.9,884.5,479.1C5512.3,27.8,5533,44,5457,177.6c-46.1,78.3-1635.4,997.3-1725.2,997.3C3694.9,1174.9,3646.5,1151.9,3618.9,1121.9z"/></g></g>
</svg>